<svg width="16" height="14" viewBox="0 0 16 14" fill="none" xmlns="http://www.w3.org/2000/svg">
<path d="M14.3999 0.599976H1.59998C1.17564 0.599976 0.76868 0.768545 0.468624 1.0686C0.168569 1.36866 0 1.77562 0 2.19996V11.7999C0 12.2242 0.168569 12.6312 0.468624 12.9312C0.76868 13.2313 1.17564 13.3998 1.59998 13.3998H14.3999C14.8242 13.3998 15.2312 13.2313 15.5312 12.9312C15.8313 12.6312 15.9998 12.2242 15.9998 11.7999V2.19996C15.9998 1.77562 15.8313 1.36866 15.5312 1.0686C15.2312 0.768545 14.8242 0.599976 14.3999 0.599976V0.599976ZM1.59998 11.7999V2.19996H14.3999V11.7999H1.59998Z" fill="#000000"/>
<path d="M3.19998 3.79993H4.79997V10.1999H3.19998V3.79993ZM5.59996 3.79993H6.39995V10.1999H5.59996V3.79993ZM11.9999 3.79993H12.7999V10.1999H11.9999V3.79993ZM8.79993 3.79993H11.1999V10.1999H8.79993V3.79993ZM7.19994 3.79993H7.99993V10.1999H7.19994V3.79993Z" fill="#000000"/>
</svg>
