<svg width="16" height="16" viewBox="0 0 16 16" fill="none" xmlns="http://www.w3.org/2000/svg">
<path d="M2.39998 12.7999V15.8126L3.61196 15.0854L7.42153 12.7999H11.1999C12.0823 12.7999 12.7999 12.0823 12.7999 11.1999V4.79994C12.7999 3.91754 12.0823 3.19995 11.1999 3.19995H1.59998C0.717593 3.19995 0 3.91754 0 4.79994V11.1999C0 12.0823 0.717593 12.7999 1.59998 12.7999H2.39998ZM1.59998 4.79994H11.1999V11.1999H6.97833L3.99996 12.9871V11.1999H1.59998V4.79994Z" fill="#000000"/>
<path d="M14.3999 0H4.79997C3.91757 0 3.19998 0.717593 3.19998 1.59998H12.7999C13.6823 1.59998 14.3999 2.31758 14.3999 3.19997V9.5999C15.2823 9.5999 15.9999 8.88231 15.9999 7.99992V1.59998C15.9999 0.717593 15.2823 0 14.3999 0Z" fill="#000000"/>
</svg>
