<svg width="105" height="41" viewBox="0 0 105 41" fill="none" xmlns="http://www.w3.org/2000/svg">
<path d="M19.7041 31.6671C15.2297 31.7545 10.8855 30.1592 7.531 27.1971C2.96946 23.1304 0.000150183 16.3365 0.000150183 9.01543C-0.00815361 8.12177 0.328168 7.25927 0.939237 6.60712C1.55031 5.95498 2.38914 5.56334 3.28145 5.51358C3.7405 5.49546 4.19847 5.57028 4.62789 5.73354C5.0573 5.8968 5.44931 6.14514 5.78038 6.46364C6.11144 6.78215 6.37475 7.16426 6.55448 7.58705C6.73422 8.00983 6.82668 8.46458 6.82633 8.92398C6.82633 13.1251 8.36477 18.7894 12.0764 22.103C13.8222 23.716 16.0772 24.6674 18.4507 24.7926C18.9886 24.8302 19.8601 24.8463 19.8601 24.3138V9.0208C19.8496 8.13495 20.1779 7.27854 20.7778 6.62665C21.3777 5.97475 22.2039 5.5766 23.0876 5.51358C23.5491 5.49175 24.0102 5.56378 24.4431 5.7253C24.876 5.88682 25.2716 6.13448 25.606 6.45329C25.9404 6.7721 26.2066 7.15544 26.3886 7.58011C26.5706 8.00478 26.6645 8.46196 26.6647 8.92398V27.9717C26.6647 29.537 25.4168 30.6612 23.8837 31.1992C23.1145 31.4843 21.8665 31.6618 19.6826 31.6618" fill="#EB5A1C"/>
<path d="M41.9576 31.7371C39.3713 31.7371 36.843 30.9701 34.6926 29.5332C32.5421 28.0963 30.866 26.054 29.8763 23.6646C28.8865 21.2751 28.6276 18.6458 29.1321 16.1091C29.6367 13.5725 30.8821 11.2424 32.711 9.4136C34.5398 7.58478 36.8698 6.33934 39.4065 5.83477C41.9431 5.3302 44.5724 5.58916 46.9619 6.57891C49.3514 7.56866 51.3937 9.24475 52.8306 11.3952C54.2675 13.5457 55.0344 16.0739 55.0344 18.6603C55.0316 22.1276 53.6529 25.4521 51.2012 27.9038C48.7494 30.3556 45.425 31.7342 41.9576 31.7371ZM41.9576 11.5598C40.5535 11.5608 39.1812 11.9782 38.0143 12.759C36.8473 13.5399 35.9381 14.6492 35.4015 15.9468C34.8649 17.2443 34.725 18.6718 34.9996 20.0488C35.2742 21.4258 35.9509 22.6905 36.9441 23.683C37.9373 24.6755 39.2025 25.3512 40.5798 25.6248C41.957 25.8983 43.3844 25.7574 44.6815 25.2198C45.9787 24.6822 47.0873 23.7721 47.8673 22.6046C48.6472 21.437 49.0635 20.0644 49.0635 18.6603C49.0664 17.7253 48.8847 16.799 48.5288 15.9344C48.173 15.0698 47.65 14.2839 46.9899 13.6217C46.3298 12.9596 45.5455 12.4343 44.6819 12.0758C43.8184 11.7174 42.8926 11.5329 41.9576 11.5329V11.5598Z" fill="#EB5A1C"/>
<path d="M69.6766 31.7371C67.5262 31.737 65.4089 31.2066 63.5124 30.1929C61.6158 29.1791 59.9986 27.7133 58.8039 25.9252C57.6091 24.1372 56.8738 22.0821 56.6631 19.9419C56.4523 17.8018 56.7726 15.6428 57.5955 13.656C58.4185 11.6692 59.7187 9.91605 61.381 8.5518C63.0434 7.18755 65.0165 6.25433 67.1257 5.83478C69.2348 5.41523 71.4149 5.52231 73.4728 6.14654C75.5306 6.77077 77.4028 7.89288 78.9234 9.41347C79.2007 9.69074 79.4206 10.0199 79.5707 10.3822C79.7208 10.7444 79.798 11.1327 79.798 11.5248C79.798 11.9169 79.7208 12.3052 79.5707 12.6674C79.4206 13.0297 79.2007 13.3589 78.9234 13.6361C78.6462 13.9134 78.317 14.1333 77.9548 14.2834C77.5925 14.4334 77.2042 14.5107 76.8121 14.5107C76.42 14.5107 76.0317 14.4334 75.6695 14.2834C75.3072 14.1333 74.9781 13.9134 74.7008 13.6361C73.7071 12.6422 72.4409 11.9653 71.0625 11.691C69.684 11.4167 68.2552 11.5574 66.9567 12.0952C65.6582 12.633 64.5483 13.5437 63.7674 14.7123C62.9866 15.8809 62.5698 17.2548 62.5698 18.6603C62.5698 20.0657 62.9866 21.4397 63.7674 22.6082C64.5483 23.7768 65.6582 24.6876 66.9567 25.2254C68.2552 25.7632 69.684 25.9038 71.0625 25.6295C72.4409 25.3552 73.7071 24.6783 74.7008 23.6844C74.9781 23.4072 75.3072 23.1872 75.6695 23.0372C76.0317 22.8871 76.42 22.8099 76.8121 22.8099C77.2042 22.8099 77.5925 22.8871 77.9548 23.0372C78.317 23.1872 78.6462 23.4072 78.9234 23.6844C79.2007 23.9617 79.4206 24.2909 79.5707 24.6531C79.7208 25.0154 79.798 25.4037 79.798 25.7958C79.798 26.1879 79.7208 26.5761 79.5707 26.9384C79.4206 27.3007 79.2007 27.6298 78.9234 27.9071C77.7118 29.125 76.2707 30.0905 74.6835 30.7479C73.0963 31.4053 71.3946 31.7415 69.6766 31.7371Z" fill="#EB5A1C"/>
<path d="M102.065 20.4892C101.462 20.4034 100.846 20.5081 100.305 20.7887C99.7644 21.0693 99.3246 21.5119 99.0472 22.0545C98.5857 22.9037 97.9559 23.6497 97.1962 24.2471C96.4365 24.8445 95.563 25.2806 94.629 25.5288C93.695 25.7771 92.7202 25.8322 91.7641 25.6908C90.8081 25.5494 89.891 25.2144 89.0688 24.7065C88.9736 24.6493 88.8959 24.5671 88.8441 24.4688C88.7923 24.3705 88.7684 24.2599 88.7751 24.149C88.7817 24.0381 88.8186 23.9311 88.8818 23.8398C88.945 23.7484 89.032 23.676 89.1334 23.6306L103.216 17.1756C103.567 17.0333 103.887 16.8222 104.155 16.5545C104.424 16.2869 104.636 15.9682 104.779 15.6173C104.923 15.2664 104.994 14.8903 104.99 14.5112C104.986 14.1322 104.906 13.7578 104.755 13.4102C104.074 11.8117 103.081 10.365 101.835 9.15436C100.589 7.94376 99.1142 6.99361 97.4968 6.35941C95.8793 5.72522 94.1517 5.41969 92.4148 5.46067C90.6779 5.50166 88.9666 5.88833 87.3809 6.59812C85.7951 7.3079 84.3667 8.32656 83.179 9.59459C81.9914 10.8626 81.0683 12.3546 80.4638 13.9834C79.8592 15.6122 79.5852 17.3451 79.6579 19.0809C79.7306 20.8168 80.1485 22.5207 80.8871 24.0932L80.9194 24.1793L80.9624 24.26C81.9901 26.4493 83.6048 28.3107 85.627 29.6373C87.6492 30.9639 89.9996 31.7037 92.4171 31.7745C94.8346 31.8453 97.2243 31.2443 99.3207 30.0383C101.417 28.8323 103.138 27.0686 104.292 24.9432C104.523 24.5168 104.646 24.0409 104.653 23.5562C104.659 23.0716 104.548 22.5926 104.328 22.1604C104.109 21.7283 103.787 21.3558 103.392 21.0751C102.997 20.7943 102.54 20.6135 102.06 20.5484L102.065 20.4892ZM85.7768 17.6167C85.9557 16.4574 86.4192 15.3605 87.126 14.4242C87.8327 13.4879 88.7606 12.7415 89.8265 12.2517C90.8924 11.7619 92.0631 11.544 93.2339 11.6176C94.4047 11.6912 95.5389 12.0539 96.5351 12.6732C96.6338 12.7278 96.715 12.8092 96.7694 12.908C96.8237 13.0068 96.849 13.119 96.8422 13.2315C96.8354 13.3441 96.797 13.4524 96.7312 13.544C96.6654 13.6356 96.5751 13.7067 96.4706 13.7491L86.6374 18.2784C86.5311 18.3321 86.4112 18.3534 86.2928 18.3396C86.1744 18.3258 86.0627 18.2775 85.9715 18.2007C85.8804 18.1238 85.8138 18.0219 85.7802 17.9076C85.7465 17.7932 85.7472 17.6715 85.7822 17.5575L85.7768 17.6167Z" fill="#EB5A1C"/>
<path d="M98.3261 3.99673C97.573 2.98544 94.3939 0 92.8124 0C91.2309 0 88.0518 2.98544 87.2988 3.99673C86.6156 4.92195 87.4817 5.02953 88.0088 4.76595C89.486 3.95433 91.1289 3.49069 92.8124 3.4104C94.4959 3.49069 96.1389 3.95433 97.616 4.76595C98.1539 5.02953 99.0146 4.92195 98.3261 3.99673Z" fill="#EB5A1C"/>
<path d="M58.2351 40.7526H58.9667C59.1506 40.7531 59.3302 40.6965 59.4805 40.5904C59.6308 40.4844 59.7445 40.3344 59.8058 40.1609L61.3228 35.9168C61.3388 35.8652 61.371 35.8201 61.4146 35.7882C61.4581 35.7562 61.5108 35.7391 61.5648 35.7392H62.5761C62.8705 35.739 63.1576 35.6472 63.3975 35.4766C63.6375 35.306 63.8185 35.0651 63.9155 34.7871L63.9639 34.658C63.9718 34.6402 63.9758 34.621 63.9758 34.6015C63.9758 34.5821 63.9718 34.5629 63.9639 34.5451C63.9531 34.5295 63.9386 34.517 63.9217 34.5085C63.9048 34.5 63.886 34.496 63.8671 34.4967H58.6332C58.5446 34.4962 58.4581 34.5234 58.3858 34.5746C58.3134 34.6257 58.2589 34.6981 58.2297 34.7818L57.95 35.5779C57.9429 35.596 57.9404 35.6157 57.9427 35.635C57.945 35.6544 57.9521 35.6728 57.9633 35.6888C57.9745 35.7048 57.9894 35.7177 58.0068 35.7265C58.0242 35.7353 58.0435 35.7397 58.063 35.7392H59.5476C59.5892 35.7394 59.6301 35.7498 59.6667 35.7695C59.7033 35.7892 59.7344 35.8176 59.7574 35.8522C59.7832 35.8852 59.8002 35.9243 59.8068 35.9657C59.8134 36.0071 59.8094 36.0495 59.7951 36.0889L58.1813 40.6935C58.1775 40.7 58.1755 40.7074 58.1755 40.715C58.1755 40.7225 58.1775 40.73 58.1813 40.7365C58.1873 40.739 58.1937 40.7403 58.2001 40.7403C58.2066 40.7403 58.213 40.739 58.219 40.7365" fill="#EB5A1C"/>
<path d="M69.5531 34.7869L69.6337 34.5556C69.6375 34.5491 69.6395 34.5417 69.6395 34.5341C69.6395 34.5266 69.6375 34.5191 69.6337 34.5126C69.6278 34.5101 69.6214 34.5088 69.6149 34.5088C69.6084 34.5088 69.602 34.5101 69.5961 34.5126H65.8683C65.5802 34.5157 65.2998 34.6064 65.0644 34.7726C64.829 34.9388 64.6497 35.1727 64.5504 35.4432L62.9905 39.881C62.956 39.9802 62.9458 40.0861 62.9608 40.19C62.9758 40.2939 63.0155 40.3927 63.0765 40.4781C63.1364 40.5649 63.2169 40.6354 63.3108 40.6833C63.4047 40.7312 63.509 40.755 63.6144 40.7524H66.5784C66.7591 40.7427 66.9333 40.6819 67.0808 40.5772C67.2284 40.4725 67.3433 40.3281 67.4121 40.1607L67.6219 39.569C67.6248 39.5632 67.6263 39.5567 67.6263 39.5502C67.6263 39.5437 67.6248 39.5372 67.6219 39.5314C67.6161 39.5285 67.6096 39.527 67.6031 39.527C67.5966 39.527 67.5901 39.5285 67.5843 39.5314H64.8947C64.8655 39.5314 64.8366 39.5246 64.8105 39.5115C64.7843 39.4984 64.7616 39.4794 64.7441 39.4561C64.7308 39.4293 64.7239 39.3999 64.7239 39.37C64.7239 39.3401 64.7308 39.3107 64.7441 39.2839L65.0184 38.5093C65.041 38.4432 65.0837 38.3857 65.1407 38.3452C65.1976 38.3047 65.2659 38.283 65.3358 38.2834H66.3094C66.6038 38.2831 66.8909 38.1913 67.1308 38.0208C67.3708 37.8502 67.5518 37.6093 67.6488 37.3313L67.7403 37.0731C67.7428 37.0671 67.7441 37.0607 67.7441 37.0543C67.7441 37.0478 67.7428 37.0414 67.7403 37.0354C67.7281 37.0309 67.7148 37.0309 67.7026 37.0354H65.8038C65.7745 37.0354 65.7457 37.0286 65.7196 37.0156C65.6934 37.0025 65.6707 36.9835 65.6532 36.9601C65.6399 36.9343 65.633 36.9057 65.633 36.8767C65.633 36.8478 65.6399 36.8192 65.6532 36.7934L65.9275 36.008C65.9514 35.9427 65.9945 35.8862 66.0511 35.8458C66.1078 35.8055 66.1753 35.7833 66.2449 35.7821H68.2997C68.5941 35.7818 68.8812 35.69 69.1211 35.5194C69.3611 35.3489 69.5421 35.1079 69.6391 34.83" fill="#EB5A1C"/>
<path d="M79.3377 35.7391C79.6339 35.741 79.9234 35.6503 80.1655 35.4796C80.4076 35.3088 80.5902 35.0667 80.6879 34.787L80.7685 34.5557C80.7723 34.5491 80.7743 34.5417 80.7743 34.5342C80.7743 34.5266 80.7723 34.5192 80.7685 34.5126C80.7627 34.5098 80.7562 34.5083 80.7497 34.5083C80.7432 34.5083 80.7368 34.5098 80.7309 34.5126H77.0031C76.7094 34.5125 76.4228 34.6035 76.1829 34.7731C75.943 34.9426 75.7616 35.1824 75.6637 35.4594L74.1037 39.8972C74.0693 39.9963 74.0591 40.1023 74.0741 40.2062C74.0891 40.3101 74.1288 40.4089 74.1898 40.4943C74.2496 40.5811 74.3301 40.6516 74.4241 40.6995C74.518 40.7474 74.6223 40.7712 74.7277 40.7686H77.6916C77.8723 40.7589 78.0466 40.6981 78.1941 40.5934C78.3417 40.4886 78.4566 40.3442 78.5254 40.1769L78.7352 39.5852C78.7381 39.5793 78.7396 39.5729 78.7396 39.5664C78.7396 39.5599 78.7381 39.5534 78.7352 39.5475C78.7293 39.5447 78.7229 39.5432 78.7164 39.5432C78.7099 39.5432 78.7034 39.5447 78.6976 39.5475H76.008C75.9787 39.5475 75.9499 39.5407 75.9238 39.5277C75.8976 39.5146 75.8749 39.4956 75.8574 39.4722C75.8441 39.4455 75.8372 39.416 75.8372 39.3862C75.8372 39.3563 75.8441 39.3269 75.8574 39.3001L76.1317 38.5255C76.1542 38.4593 76.197 38.4019 76.254 38.3614C76.3109 38.3208 76.3792 38.2992 76.4491 38.2996H77.4227C77.7171 38.2993 78.0041 38.2075 78.2441 38.0369C78.4841 37.8664 78.6651 37.6254 78.7621 37.3475L78.8536 37.0893C78.8561 37.0833 78.8574 37.0769 78.8574 37.0704C78.8574 37.064 78.8561 37.0576 78.8536 37.0516C78.8414 37.0471 78.828 37.0471 78.8159 37.0516H76.9171C76.8878 37.0516 76.859 37.0448 76.8329 37.0317C76.8067 37.0187 76.784 36.9997 76.7664 36.9763C76.7532 36.9505 76.7463 36.9219 76.7463 36.8929C76.7463 36.8639 76.7532 36.8354 76.7664 36.8095L77.0408 36.0242C77.0647 35.9589 77.1078 35.9023 77.1644 35.862C77.2211 35.8217 77.2886 35.7995 77.3581 35.7983L79.3377 35.7391Z" fill="#EB5A1C"/>
<path d="M86.3899 34.7869L86.4706 34.5556C86.4744 34.5491 86.4764 34.5417 86.4764 34.5341C86.4764 34.5266 86.4744 34.5191 86.4706 34.5126C86.4647 34.5101 86.4582 34.5088 86.4518 34.5088C86.4453 34.5088 86.4389 34.5101 86.433 34.5126H82.7052C82.4114 34.5125 82.1249 34.6035 81.885 34.773C81.6451 34.9426 81.4637 35.1824 81.3658 35.4593L79.8058 39.8972C79.7715 39.9959 79.7613 40.1015 79.7761 40.205C79.7909 40.3085 79.8301 40.407 79.8907 40.4922C79.9512 40.5775 80.0312 40.647 80.124 40.6951C80.2169 40.7432 80.3199 40.7684 80.4244 40.7686H83.6519C83.8326 40.7588 84.0068 40.6981 84.1544 40.5933C84.302 40.4886 84.4168 40.3442 84.4857 40.1769L84.6955 39.5852C84.6983 39.5793 84.6998 39.5729 84.6998 39.5663C84.6998 39.5598 84.6983 39.5534 84.6955 39.5475C84.6896 39.5447 84.6832 39.5432 84.6767 39.5432C84.6701 39.5432 84.6637 39.5447 84.6578 39.5475H81.6993C81.6701 39.5475 81.6412 39.5407 81.6151 39.5276C81.5889 39.5146 81.5662 39.4956 81.5487 39.4722C81.5327 39.4489 81.522 39.4224 81.5173 39.3945C81.5127 39.3666 81.5142 39.3381 81.5218 39.3108L82.6783 36.0134C82.7022 35.9481 82.7453 35.8915 82.8019 35.8512C82.8586 35.8109 82.9261 35.7887 82.9957 35.7875H85.0505C85.3447 35.7864 85.6314 35.6943 85.8712 35.5238C86.111 35.3534 86.2922 35.1129 86.3899 34.8354" fill="#EB5A1C"/>
<path d="M93.7217 35.3682C93.7562 35.269 93.7663 35.1631 93.7514 35.0592C93.7364 34.9553 93.6967 34.8565 93.6357 34.7711C93.5758 34.6843 93.4953 34.6138 93.4014 34.5659C93.3075 34.518 93.2031 34.4942 93.0977 34.4968H88.4179C88.1241 34.4967 87.8375 34.5877 87.5976 34.7572C87.3578 34.9268 87.1764 35.1665 87.0784 35.4435L85.5292 39.8813C85.4937 39.9801 85.4825 40.086 85.4967 40.19C85.5109 40.294 85.5501 40.3931 85.6109 40.4787C85.6716 40.5643 85.7522 40.6339 85.8457 40.6816C85.9392 40.7294 86.0429 40.7538 86.1478 40.7528H90.8223C91.1161 40.7529 91.4027 40.6619 91.6426 40.4923C91.8824 40.3228 92.0638 40.083 92.1618 39.806L93.7217 35.3682ZM91.9842 35.9868L90.8439 39.2681C90.82 39.3334 90.7769 39.3899 90.7202 39.4303C90.6636 39.4706 90.596 39.4928 90.5265 39.494H87.4227C87.3934 39.4945 87.3644 39.4878 87.3382 39.4747C87.312 39.4616 87.2893 39.4424 87.2721 39.4187C87.2545 39.3941 87.2429 39.3657 87.2382 39.3358C87.2335 39.306 87.2359 39.2754 87.2452 39.2466L88.4017 35.9491C88.4259 35.883 88.4699 35.8259 88.5276 35.7855C88.5853 35.7451 88.654 35.7233 88.7245 35.7232H91.8229C91.8529 35.7218 91.8828 35.7286 91.9093 35.7428C91.9358 35.757 91.958 35.7781 91.9735 35.8039C91.9929 35.83 92.0043 35.8612 92.0062 35.8937C92.0082 35.9262 92.0005 35.9586 91.9842 35.9868Z" fill="#EB5A1C"/>
<path d="M71.0053 34.4966C70.8696 34.4957 70.7371 34.5372 70.6262 34.6153C70.5153 34.6935 70.4315 34.8043 70.3867 34.9323L68.7729 39.5745C68.7255 39.7082 68.711 39.8513 68.7307 39.9918C68.7504 40.1323 68.8036 40.2659 68.8859 40.3814C68.967 40.4971 69.0749 40.5913 69.2005 40.6559C69.3261 40.7206 69.4655 40.7538 69.6067 40.7526H72.2963C72.4795 40.7527 72.6582 40.6959 72.8076 40.5898C72.9571 40.4838 73.0697 40.3339 73.1301 40.1609L73.3399 39.5692C73.3427 39.5633 73.3442 39.5569 73.3442 39.5503C73.3442 39.5438 73.3427 39.5374 73.3399 39.5315C73.334 39.5287 73.3276 39.5272 73.321 39.5272C73.3145 39.5272 73.3081 39.5287 73.3022 39.5315H70.7686C70.7152 39.5311 70.6625 39.5182 70.6149 39.494C70.5673 39.4697 70.526 39.4347 70.4943 39.3917C70.4624 39.347 70.4418 39.2953 70.4343 39.241C70.4268 39.1866 70.4326 39.1313 70.4512 39.0797L72.0327 34.5773C72.0365 34.5707 72.0385 34.5633 72.0385 34.5558C72.0385 34.5482 72.0365 34.5408 72.0327 34.5343C72.0269 34.5314 72.0204 34.5299 72.0139 34.5299C72.0074 34.5299 72.0009 34.5314 71.9951 34.5343L71.0053 34.4966Z" fill="#EB5A1C"/>
<path d="M99.956 40.7259H100.682C100.876 40.7264 101.066 40.6701 101.229 40.564C101.391 40.4579 101.519 40.3067 101.597 40.1288L103.339 35.3575C103.364 35.2652 103.366 35.1685 103.347 35.0752C103.327 34.9818 103.286 34.8943 103.227 34.8196C103.141 34.7084 103.031 34.6185 102.905 34.5569C102.779 34.4953 102.641 34.4637 102.5 34.4645H96.4166C96.1025 34.4439 95.7903 34.5262 95.5272 34.699C95.2642 34.8718 95.0646 35.1256 94.9588 35.422L93.7109 39.0153L93.103 40.6291C93.1116 40.6409 93.123 40.6505 93.1361 40.6571C93.1492 40.6636 93.1637 40.667 93.1783 40.6667H93.9045C94.0989 40.6654 94.2886 40.6078 94.4509 40.5009C94.6132 40.3939 94.741 40.2423 94.819 40.0643L96.2982 36.0837C96.3231 36.0143 96.3693 35.9546 96.4302 35.9131C96.491 35.8716 96.5634 35.8503 96.6371 35.8524H97.8528C97.885 35.8513 97.9171 35.8581 97.9461 35.8721C97.9752 35.8862 98.0004 35.9071 98.0195 35.9331C98.0311 35.9584 98.0371 35.9859 98.0371 36.0137C98.0371 36.0416 98.0311 36.0691 98.0195 36.0944L96.8254 39.3381C96.8234 39.3423 96.8224 39.3469 96.8224 39.3515C96.8224 39.3562 96.8234 39.3608 96.8254 39.365C96.8346 39.3758 96.8461 39.3844 96.8592 39.39C96.8723 39.3956 96.8865 39.3981 96.9007 39.3973H97.2127C97.5288 39.4105 97.8411 39.3235 98.1048 39.1486C98.3686 38.9738 98.5703 38.72 98.6812 38.4236L99.6548 36.1375C99.6791 36.0696 99.7247 36.0114 99.7848 35.9717C99.8449 35.9319 99.9163 35.9127 99.9883 35.9169H101.333C101.365 35.9171 101.397 35.9244 101.426 35.9384C101.454 35.9524 101.48 35.9726 101.5 35.9976C101.516 36.0209 101.527 36.0474 101.531 36.0753C101.536 36.1032 101.534 36.1318 101.527 36.159L99.8646 40.6667C99.8732 40.6786 99.8845 40.6882 99.8976 40.6947C99.9107 40.7013 99.9252 40.7046 99.9399 40.7044" fill="#EB5A1C"/>
</svg>
