<svg width="12" height="16" viewBox="0 0 12 16" fill="none" xmlns="http://www.w3.org/2000/svg">
<path d="M3.59993 14.3999H8.39988V15.9998H3.59993V14.3999ZM9.92467 9.36951C10.7487 8.40472 11.5999 7.40713 11.5999 5.59994C11.5999 2.51277 9.08708 0 5.99991 0C2.91274 0 0.399963 2.51277 0.399963 5.59994C0.399963 7.42793 1.25355 8.42232 2.08075 9.38391C2.36714 9.7183 2.66394 10.0647 2.94794 10.4631C3.06314 10.6279 3.25193 11.2599 3.42073 11.9999H2.79994V13.5999H9.19987V11.9999H8.58068C8.75108 11.2583 8.94068 10.6247 9.05508 10.4599C9.33667 10.0575 9.63587 9.7079 9.92467 9.36951ZM7.74549 9.5399C7.39829 10.0335 7.1087 11.1999 6.9407 11.9999H5.05992C4.89272 11.1983 4.60232 10.0295 4.25112 9.5359C3.95093 9.12338 3.63166 8.72508 3.29433 8.34232C2.51514 7.43513 1.99995 6.83513 1.99995 5.59994C1.99995 3.39437 3.79433 1.59998 5.99991 1.59998C8.20548 1.59998 9.99987 3.39437 9.99987 5.59994C9.99987 6.81673 9.48547 7.41913 8.70788 8.33032C8.40948 8.68071 8.07109 9.07671 7.74549 9.5399V9.5399Z" fill="#FF5900"/>
</svg>
