<svg width="28" height="29" viewBox="0 0 28 29" fill="none" xmlns="http://www.w3.org/2000/svg">
<g filter="url(#filter0_d_1062_1872)">
<path d="M23.2104 3.79513C22.011 2.58881 20.5843 1.63227 19.0128 0.980858C17.4413 0.329443 15.7563 -0.00392595 14.0552 3.48843e-05C6.9178 3.48843e-05 1.11166 5.80494 1.10857 12.9405C1.10577 15.2112 1.70154 17.4426 2.83586 19.4098L1 26.1153L7.86225 24.3159C9.76001 25.3498 11.8867 25.8915 14.0478 25.8914H14.0552C21.1895 25.8914 26.9969 20.0853 26.9999 12.951C27.0051 11.2502 26.673 9.56535 26.0229 7.99378C25.3727 6.42221 24.4174 4.99514 23.2123 3.79513H23.2104Z" fill="#E0E0E0"/>
<path d="M14.0549 23.7061H14.0506C12.1238 23.7062 10.2324 23.1882 8.57449 22.2065L8.18153 21.9733L4.11007 23.0411L5.19703 19.0721L4.94102 18.6655C3.86336 16.9511 3.29316 14.9665 3.2964 12.9415C3.2964 7.0107 8.12231 2.18604 14.0549 2.18604C15.468 2.18636 16.8672 2.46503 18.1726 3.00613C19.478 3.54724 20.664 4.34018 21.6629 5.33967C22.6618 6.33916 23.4541 7.52563 23.9945 8.83133C24.5348 10.137 24.8127 11.5364 24.8122 12.9495C24.8097 18.8802 19.9832 23.7061 14.0549 23.7061Z" fill="#E0E0E0"/>
<path d="M1.59375 25.3719L3.34633 18.9717C2.26343 17.0948 1.69465 14.9655 1.69739 12.7986C1.69985 5.98935 7.24135 0.449707 14.0506 0.449707C15.6732 0.449788 17.2799 0.769531 18.7789 1.39067C20.278 2.01181 21.64 2.92219 22.7871 4.06979C23.9343 5.21739 24.8441 6.57975 25.4646 8.07903C26.0852 9.57832 26.4043 11.1852 26.4037 12.8078C26.4006 19.617 20.8591 25.1573 14.0512 25.1573H14.0456C11.9833 25.157 9.95385 24.6402 8.14262 23.6539L1.59375 25.3719Z" fill="url(#paint0_linear_1062_1872)"/>
<path fill-rule="evenodd" clip-rule="evenodd" d="M10.8548 7.4464C10.6155 6.91403 10.3613 6.90354 10.1349 6.8912C9.94986 6.88318 9.73518 6.8838 9.52235 6.8838C9.36033 6.88787 9.20092 6.92549 9.05418 6.9943C8.90744 7.0631 8.77656 7.16159 8.66981 7.28354C8.37988 7.60556 7.55078 8.37975 7.55078 9.95281C7.55078 11.5259 8.69634 13.0465 8.85611 13.2599C9.01589 13.4734 11.0683 16.8046 14.318 18.0859C17.0188 19.1512 17.5684 18.939 18.1551 18.8878C18.7417 18.8366 20.0464 18.1142 20.3142 17.3678C20.5819 16.6214 20.5807 15.9816 20.4992 15.8478C20.4178 15.7139 20.2062 15.6343 19.8867 15.4746C19.5671 15.3148 17.9947 14.5412 17.7017 14.4345C17.4086 14.3278 17.1958 14.2747 16.9824 14.5949C16.7689 14.9151 16.157 15.6325 15.9676 15.8459C15.7782 16.0594 15.5975 16.0859 15.2748 15.9261C14.9522 15.7664 13.9251 15.4289 12.7036 14.3395C11.753 13.4919 11.1115 12.4457 10.9252 12.1255C10.7389 11.8053 10.9048 11.632 11.0652 11.4728C11.2089 11.3297 11.3854 11.0996 11.5451 10.9133C11.7049 10.727 11.758 10.5931 11.8647 10.3797C11.9714 10.1663 11.9177 9.97996 11.8381 9.81956C11.7586 9.65917 11.1367 8.07871 10.8511 7.4464H10.8548Z" fill="white"/>
<path d="M23.1044 3.75439C21.9191 2.56173 20.509 1.61602 18.9557 0.972006C17.4024 0.327989 15.7368 -0.0015448 14.0553 0.00247779C6.99935 0.00247779 1.25922 5.74077 1.25675 12.7943C1.25369 15.0391 1.84267 17.245 2.9643 19.1895L1.14941 25.818L7.93517 24.0395C9.81131 25.0611 11.9135 25.5964 14.0498 25.5965H14.0553C21.1076 25.5965 26.8489 19.8595 26.8514 12.8047C26.857 11.1235 26.5289 9.45786 25.8861 7.90432C25.2433 6.35078 24.2987 4.94023 23.1069 3.75439H23.1044ZM14.0553 23.4362H14.0516C12.1469 23.4366 10.2772 22.9253 8.6378 21.9556L8.24917 21.7256L4.22151 22.781L5.29551 18.8558L5.04259 18.4536C3.97759 16.7585 3.41385 14.7967 3.41647 12.7949C3.41647 6.93444 8.18995 2.16343 14.0565 2.16343C15.4533 2.16384 16.8363 2.43939 18.1266 2.97434C19.4169 3.5093 20.5892 4.29318 21.5765 5.28123C22.5638 6.26928 23.3468 7.44213 23.8807 8.73281C24.4147 10.0235 24.6892 11.4067 24.6886 12.8035C24.6861 18.6664 19.9157 23.4362 14.0553 23.4362Z" fill="white"/>
</g>
<defs>
<filter id="filter0_d_1062_1872" x="0" y="0" width="28" height="28.1152" filterUnits="userSpaceOnUse" color-interpolation-filters="sRGB">
<feFlood flood-opacity="0" result="BackgroundImageFix"/>
<feColorMatrix in="SourceAlpha" type="matrix" values="0 0 0 0 0 0 0 0 0 0 0 0 0 0 0 0 0 0 127 0" result="hardAlpha"/>
<feOffset dy="1"/>
<feGaussianBlur stdDeviation="0.5"/>
<feComposite in2="hardAlpha" operator="out"/>
<feColorMatrix type="matrix" values="0 0 0 0 0 0 0 0 0 0 0 0 0 0 0 0 0 0 0.25 0"/>
<feBlend mode="normal" in2="BackgroundImageFix" result="effect1_dropShadow_1062_1872"/>
<feBlend mode="normal" in="SourceGraphic" in2="effect1_dropShadow_1062_1872" result="shape"/>
</filter>
<linearGradient id="paint0_linear_1062_1872" x1="14.0236" y1="25.5719" x2="14.0236" y2="0.659646" gradientUnits="userSpaceOnUse">
<stop stop-color="#20B038"/>
<stop offset="1" stop-color="#60D66A"/>
</linearGradient>
</defs>
</svg>
